<?xml version="1.0" encoding="utf-8"?>
<!-- Generator: Adobe Illustrator 19.0.0, SVG Export Plug-In . SVG Version: 6.00 Build 0)  -->
<svg version="1.1" id="Layer_1" xmlns="http://www.w3.org/2000/svg" xmlns:xlink="http://www.w3.org/1999/xlink" x="0px" y="0px"
	 viewBox="0 0 83.3 72.8" style="enable-background:new 0 0 83.3 72.8;" xml:space="preserve">
<style type="text/css">
	.st0{fill:#FFFFFF;}
	.st1{opacity:0;fill:#FFFFFF;}
</style>
<g>
	<polygon class="st0" points="57,29.5 42.3,1.5 37.3,4.1 50.6,29.5 	"/>
	<polygon class="st0" points="54,36 55.2,38.3 59.6,36 	"/>
</g>
<polygon class="st0" points="79.6,72.8 66.7,48.2 60.3,48.2 73.2,72.8 "/>
<path class="st0" d="M6.4,72.8l16.3-31.2h39.8c11.5,0,20.8-9.3,20.8-20.8S74,0,62.5,0H38.1L0,72.8H6.4z M41.5,5.7h21
	c8.4,0,15.2,6.8,15.2,15.2S70.9,36,62.5,36H25.7L41.5,5.7z"/>
<path class="st0" d="M38.1,0H26.5v1.5l2.2,1c3.6,1.6,5.1,5.8,3.3,9.3l0,0"/>
<path class="st0" d="M73.2,72.8H61.6v-1.5l2.2-1c3.6-1.6,5.1-5.8,3.3-9.3l0,0"/>
<path class="st1" d="M42.3,64.7h8.6v-1.5L45.7,61c-4.3-1.7-7.9-5-10-9.1v0"/>
</svg>
