<?xml version="1.0" encoding="utf-8"?>
<!-- Generator: Adobe Illustrator 19.0.0, SVG Export Plug-In . SVG Version: 6.00 Build 0)  -->
<svg version="1.1" id="Layer_1" xmlns="http://www.w3.org/2000/svg" xmlns:xlink="http://www.w3.org/1999/xlink" x="0px" y="0px"
	 viewBox="0 0 1096 364" style="enable-background:new 0 0 1096 364;" xml:space="preserve">
<style type="text/css">
	.st0{fill:#456AB1;}
</style>
<g>
	<path class="st0" d="M288.6,345c-91,0-165-74-165-165s74-165,165-165s165,74,165,165S379.6,345,288.6,345z M288.6,20
		c-88.2,0-160,71.8-160,160s71.8,160,160,160s160-71.8,160-160S376.8,20,288.6,20z"/>
</g>
<g>
	<path class="st0" d="M558.1,345c-91,0-165-74-165-165s74-165,165-165s165,74,165,165S649.1,345,558.1,345z M558.1,20
		c-88.2,0-160,71.8-160,160s71.8,160,160,160c88.2,0,160-71.8,160-160S646.3,20,558.1,20z"/>
</g>
<g>
	<path class="st0" d="M827.6,345c-91,0-165-74-165-165s74-165,165-165s165,74,165,165S918.6,345,827.6,345z M827.6,20
		c-88.2,0-160,71.8-160,160s71.8,160,160,160s160-71.8,160-160S915.9,20,827.6,20z"/>
</g>
<g>
	<polygon class="st0" points="91.4,342.5 86.4,342.5 86.4,21 12.7,46.4 11,41.6 91.4,14 	"/>
</g>
<g>
	<g>
		<rect x="982.1" y="67.5" class="st0" width="105" height="5"/>
	</g>
	<g>
		<rect x="1032.1" y="17.5" class="st0" width="5" height="105"/>
	</g>
</g>
</svg>
